<svg width="16" height="19" viewBox="0 0 16 19" fill="none" xmlns="http://www.w3.org/2000/svg">
<path d="M15.3281 6.375C15.5391 6.375 15.75 6.19922 15.75 5.95312V4.54688C15.75 4.33594 15.5391 4.125 15.3281 4.125H14.625V2.4375C14.625 1.52344 13.8516 0.75 12.9375 0.75H1.6875C0.738281 0.75 0 1.52344 0 2.4375V17.0625C0 18.0117 0.738281 18.75 1.6875 18.75H12.9375C13.8516 18.75 14.625 18.0117 14.625 17.0625V15.375H15.3281C15.5391 15.375 15.75 15.1992 15.75 14.9531V13.5469C15.75 13.3359 15.5391 13.125 15.3281 13.125H14.625V10.875H15.3281C15.5391 10.875 15.75 10.6992 15.75 10.4531V9.04688C15.75 8.83594 15.5391 8.625 15.3281 8.625H14.625V6.375H15.3281ZM12.9375 17.0625H1.6875V2.4375H12.9375V17.0625ZM7.3125 9.75C8.54297 9.75 9.5625 8.76562 9.5625 7.5C9.5625 6.26953 8.54297 5.25 7.3125 5.25C6.04688 5.25 5.0625 6.26953 5.0625 7.5C5.0625 8.76562 6.04688 9.75 7.3125 9.75ZM4.14844 14.25H10.4414C10.8984 14.25 11.25 13.9688 11.25 13.582V12.9141C11.25 11.7891 10.1602 10.875 8.85938 10.875C8.50781 10.875 8.22656 11.1562 7.3125 11.1562C6.36328 11.1562 6.11719 10.875 5.73047 10.875C4.42969 10.875 3.375 11.7891 3.375 12.9141V13.582C3.375 13.9688 3.72656 14.25 4.14844 14.25Z" fill="black"/>
</svg>
