<svg width="18" height="14" viewBox="0 0 18 14" fill="none" xmlns="http://www.w3.org/2000/svg">
<path d="M16.3125 0H1.6875C0.738281 0 0 0.773438 0 1.6875V11.8125C0 12.7617 0.738281 13.5 1.6875 13.5H16.3125C17.2266 13.5 18 12.7617 18 11.8125V1.6875C18 0.773438 17.2266 0 16.3125 0ZM16.3125 1.6875V3.12891C15.5039 3.79688 14.2383 4.78125 11.5664 6.89062C10.9688 7.34766 9.80859 8.47266 9 8.4375C8.15625 8.47266 6.99609 7.34766 6.39844 6.89062C3.72656 4.78125 2.46094 3.79688 1.6875 3.12891V1.6875H16.3125ZM1.6875 11.8125V5.30859C2.46094 5.94141 3.62109 6.85547 5.34375 8.22656C6.11719 8.82422 7.48828 10.1602 9 10.125C10.4766 10.1602 11.8125 8.82422 12.6211 8.22656C14.3438 6.85547 15.5039 5.94141 16.3125 5.30859V11.8125H1.6875Z" fill="black"/>
</svg>
